<svg xmlns="http://www.w3.org/2000/svg" viewBox="0 0 16 16" enable-background="new 0 0 16 16">
    <defs>
        <style>
            .icon-bg {
                fill: #424242;
            }
        </style>
    </defs>
    <path d="M16 16h-16v-16h16v16z" fill="none" />
    <path class="icon-bg"
        d="M14.718 1.99l-.707-.707-2.16 2.159c-1.155-.798-2.837-.698-3.851.315l-2.828 2.829c-.567.566-.879 1.32-.879 2.121 0 .631.2 1.229.56 1.733l-2.156 2.156.707.707 2.156-2.157c.504.359 1.102.56 1.733.56.801 0 1.555-.313 2.121-.879l2.828-2.827c1.049-1.049 1.15-2.683.318-3.853l2.158-2.157zm-6.011 8.131c-.756.756-2.072.756-2.828 0-.378-.378-.586-.88-.586-1.414s.208-1.036.586-1.414l1.061-1.061 2.828 2.828-1.061 1.061zm2.828-2.828l-1.061 1.061-2.828-2.829 1.061-1.061c.756-.755 2.072-.755 2.828 0 .78.78.78 2.049 0 2.829z" />
</svg>