<svg xmlns="http://www.w3.org/2000/svg" viewBox="0 0 16 16" enable-background="new 0 0 16 16">
    <defs>
        <style>
            .icon-bg {
                fill: #FFFFFF;
            }
        </style>
    </defs>
    <path d="M16 16h-16v-16h16v16z" fill="none" />
    <path class="icon-bg"
        d="M8.707 8.707l-1.414 1.414-1.414-1.414 1.414-1.414-.707-.707-1.414 1.414-.708-.707-1.414 1.414c-1.049 1.049-1.15 2.683-.318 3.854l-1.45 1.45.707.707 1.449-1.45c.518.368 1.123.56 1.732.56.768 0 1.537-.292 2.122-.877l1.414-1.415-.706-.708 1.414-1.414-.707-.707zm-2.121 3.536c-.779.778-2.044.779-2.823.004l-.01-.01c-.775-.781-.774-2.045.004-2.824l.707-.707 2.829 2.828-.707.709zm8.132-10.253l-.707-.707-1.453 1.452c-1.156-.797-2.837-.698-3.851.315l-1.414 1.414 4.242 4.243 1.414-1.414c1.049-1.049 1.15-2.682.318-3.853l1.451-1.45zm-2.476 4.596l-.707.707-2.828-2.829.707-.707c.756-.755 2.072-.755 2.828 0 .78.78.78 2.049 0 2.829z" />
</svg>